<svg xmlns="http://www.w3.org/2000/svg" viewBox="0 0 467.02 190.84"><defs><style>.cls-1{fill:#1b4994;}</style></defs><g id="Laag_2" data-name="Laag 2"><g id="Layer_1" data-name="Layer 1"><path class="cls-1" d="M35.87,166.61a14.35,14.35,0,0,0,4.35,5.11,19,19,0,0,0,6.38,2.9,30.14,30.14,0,0,0,7.57.95,40.09,40.09,0,0,0,5.68-.44,20,20,0,0,0,5.68-1.71A12.4,12.4,0,0,0,70,170a8.69,8.69,0,0,0,1.77-5.62,7.89,7.89,0,0,0-2.34-5.93,18.51,18.51,0,0,0-6.12-3.79A61.93,61.93,0,0,0,54.68,152q-4.8-1.14-9.72-2.52a86,86,0,0,1-9.85-3.1,33.24,33.24,0,0,1-8.58-4.73,21.19,21.19,0,0,1-8.46-17.8,23.72,23.72,0,0,1,3-12.06,27.07,27.07,0,0,1,7.77-8.52,34,34,0,0,1,10.85-5,46.35,46.35,0,0,1,12.12-1.63,57.43,57.43,0,0,1,13.57,1.57,33.82,33.82,0,0,1,11.55,5.11,25.91,25.91,0,0,1,8,9,27.65,27.65,0,0,1,3,13.32H68.69A15.91,15.91,0,0,0,67,118.89a11.07,11.07,0,0,0-3.85-4.17,16.27,16.27,0,0,0-5.49-2.14,33.82,33.82,0,0,0-6.75-.63,23,23,0,0,0-4.8.5,12.86,12.86,0,0,0-4.35,1.77,10.87,10.87,0,0,0-3.22,3.15,8.5,8.5,0,0,0-1.26,4.8,8,8,0,0,0,1,4.29,8.87,8.87,0,0,0,4,3,50.67,50.67,0,0,0,8.21,2.78q5.23,1.38,13.69,3.53c1.69.34,4,.95,7,1.83a34,34,0,0,1,8.9,4.23,27.19,27.19,0,0,1,7.64,7.76q3.21,4.88,3.22,12.44a27.73,27.73,0,0,1-2.4,11.49,25.08,25.08,0,0,1-7.13,9.15,34.28,34.28,0,0,1-11.74,6,55.6,55.6,0,0,1-16.23,2.14A57,57,0,0,1,39,189a36.26,36.26,0,0,1-12.37-5.74,28.24,28.24,0,0,1-8.52-10,29.62,29.62,0,0,1-3-14.39H34.23A16.52,16.52,0,0,0,35.87,166.61Z"/><path class="cls-1" d="M128.29,135.3a12.52,12.52,0,0,0-7.19,2,15.26,15.26,0,0,0-4.73,5.05,21.43,21.43,0,0,0-2.59,6.81,36.72,36.72,0,0,0-.76,7.39,35.09,35.09,0,0,0,.76,7.19,22.06,22.06,0,0,0,2.46,6.63,14.19,14.19,0,0,0,4.61,4.86,12.66,12.66,0,0,0,7.07,1.89q6.44,0,9.91-3.59a17.09,17.09,0,0,0,4.35-9.66h17.3q-1.77,13-10.1,19.82T128,190.46A35.72,35.72,0,0,1,114.6,188a29.76,29.76,0,0,1-10.42-6.88,31.42,31.42,0,0,1-6.69-10.54,36.51,36.51,0,0,1-2.4-13.44,43.56,43.56,0,0,1,2.21-14.08,31.63,31.63,0,0,1,6.51-11.23,29.74,29.74,0,0,1,10.47-7.39,35.76,35.76,0,0,1,14.14-2.65,40.87,40.87,0,0,1,11.17,1.52,29.85,29.85,0,0,1,9.6,4.6,23.83,23.83,0,0,1,9.91,18.62H141.55Q139.78,135.29,128.29,135.3Z"/><path class="cls-1" d="M184,98.69v34h.38a20.78,20.78,0,0,1,8.71-8.27,23.62,23.62,0,0,1,10.36-2.59,30.34,30.34,0,0,1,11.8,2,17.52,17.52,0,0,1,7.26,5.42,21.24,21.24,0,0,1,3.72,8.46,52.35,52.35,0,0,1,1.08,11.05v40.14H209.39V152q0-8.07-2.53-12.06t-9-4q-7.32,0-10.6,4.35T184,154.61v34.21H166.09V98.69Z"/><path class="cls-1" d="M237,142.05a29.92,29.92,0,0,1,17.42-17.8,37.36,37.36,0,0,1,13.89-2.46,37.83,37.83,0,0,1,14,2.46,29.73,29.73,0,0,1,17.48,17.8,40,40,0,0,1,2.4,14.2,39.53,39.53,0,0,1-2.4,14.14A30.65,30.65,0,0,1,293,181.18a29.81,29.81,0,0,1-10.67,6.89,38.89,38.89,0,0,1-14,2.39,38.4,38.4,0,0,1-13.89-2.39,29.88,29.88,0,0,1-10.6-6.89A30.53,30.53,0,0,1,237,170.39a39.53,39.53,0,0,1-2.39-14.14A40,40,0,0,1,237,142.05Zm16.29,21.84a20.29,20.29,0,0,0,2.59,6.69,13.6,13.6,0,0,0,4.86,4.73,14.78,14.78,0,0,0,7.57,1.77,15.2,15.2,0,0,0,7.64-1.77,13.53,13.53,0,0,0,4.92-4.73,20.51,20.51,0,0,0,2.59-6.69,38.59,38.59,0,0,0,.75-7.64,39.65,39.65,0,0,0-.75-7.7,19.83,19.83,0,0,0-2.59-6.69,14.4,14.4,0,0,0-4.92-4.73,14.8,14.8,0,0,0-7.64-1.83,13.79,13.79,0,0,0-12.43,6.56,19.62,19.62,0,0,0-2.59,6.69,38.89,38.89,0,0,0-.76,7.7A37.86,37.86,0,0,0,253.32,163.89Z"/><path class="cls-1" d="M309.57,142.05A29.85,29.85,0,0,1,327,124.25a37.26,37.26,0,0,1,13.88-2.46,37.75,37.75,0,0,1,13.95,2.46,29.78,29.78,0,0,1,17.49,17.8,40.25,40.25,0,0,1,2.4,14.2,39.75,39.75,0,0,1-2.4,14.14,30.53,30.53,0,0,1-6.82,10.79,29.73,29.73,0,0,1-10.67,6.89,38.81,38.81,0,0,1-13.95,2.39A38.31,38.31,0,0,1,327,188.07a29.83,29.83,0,0,1-10.61-6.89,30.65,30.65,0,0,1-6.81-10.79,39.53,39.53,0,0,1-2.4-14.14A40,40,0,0,1,309.57,142.05Zm16.28,21.84a20.51,20.51,0,0,0,2.59,6.69,13.68,13.68,0,0,0,4.86,4.73,14.8,14.8,0,0,0,7.57,1.77,15.18,15.18,0,0,0,7.64-1.77,13.64,13.64,0,0,0,4.93-4.73,20.49,20.49,0,0,0,2.58-6.69,37.86,37.86,0,0,0,.76-7.64,38.89,38.89,0,0,0-.76-7.7,19.82,19.82,0,0,0-2.58-6.69,14.52,14.52,0,0,0-4.93-4.73,14.78,14.78,0,0,0-7.64-1.83,14.41,14.41,0,0,0-7.57,1.83,14.57,14.57,0,0,0-4.86,4.73,19.83,19.83,0,0,0-2.59,6.69,39.65,39.65,0,0,0-.76,7.7A38.59,38.59,0,0,0,325.85,163.89Z"/><path class="cls-1" d="M400.48,98.69v90.13H382.56V98.69Z"/><path class="cls-1" d="M69.89,0V16.66H19.82V37.49H55.4v15.4H19.82V90.13H0V0Z"/><path class="cls-1" d="M66.79,43.36a29.92,29.92,0,0,1,17.42-17.8A37.28,37.28,0,0,1,98.1,23.1a37.83,37.83,0,0,1,14,2.46,29.8,29.8,0,0,1,17.48,17.8,40.08,40.08,0,0,1,2.4,14.21,39.48,39.48,0,0,1-2.4,14.13,30.66,30.66,0,0,1-6.82,10.8,29.66,29.66,0,0,1-10.66,6.88,38.89,38.89,0,0,1-14,2.4,38.32,38.32,0,0,1-13.89-2.4,29.77,29.77,0,0,1-10.6-6.88,30.66,30.66,0,0,1-6.82-10.8,39.48,39.48,0,0,1-2.4-14.13A40.08,40.08,0,0,1,66.79,43.36ZM83.07,65.2a20.42,20.42,0,0,0,2.59,6.69,13.79,13.79,0,0,0,4.86,4.74,14.84,14.84,0,0,0,7.58,1.76,15.2,15.2,0,0,0,7.64-1.76,13.72,13.72,0,0,0,4.92-4.74,20.19,20.19,0,0,0,2.58-6.69,37.83,37.83,0,0,0,.76-7.63,38.92,38.92,0,0,0-.76-7.71,19.61,19.61,0,0,0-2.58-6.69,14.48,14.48,0,0,0-4.92-4.73,14.8,14.8,0,0,0-7.64-1.83,13.79,13.79,0,0,0-12.44,6.56,19.83,19.83,0,0,0-2.59,6.69,39.67,39.67,0,0,0-.75,7.71A38.56,38.56,0,0,0,83.07,65.2Z"/><path class="cls-1" d="M247.33,90.13l-11.61-43.8h-.26l-11.11,43.8H205.8L185.1,24.87H204l12,44.31h.26l10.85-44.31h17.42l11.11,44.18h.25l12-44.18h18.43L265.76,90.13Z"/><path class="cls-1" d="M287.63,44.94a20.82,20.82,0,0,1,3.15-10.48,21.63,21.63,0,0,1,7.07-6.69,31,31,0,0,1,9.66-3.6A55.22,55.22,0,0,1,318.3,23.1a72.07,72.07,0,0,1,10,.7,30.63,30.63,0,0,1,9.22,2.71,18.16,18.16,0,0,1,6.81,5.62q2.65,3.6,2.66,9.53v34a67.75,67.75,0,0,0,.5,8.46,15.13,15.13,0,0,0,1.77,6H331.05a25.09,25.09,0,0,1-.82-3.09,26,26,0,0,1-.44-3.22A23.35,23.35,0,0,1,319.69,90a40.49,40.49,0,0,1-11.87,1.77,32,32,0,0,1-8.71-1.14A20,20,0,0,1,292,87.1a16.28,16.28,0,0,1-4.73-6,20.49,20.49,0,0,1-1.71-8.72,19,19,0,0,1,2-9.15,16.4,16.4,0,0,1,5.05-5.74,22.52,22.52,0,0,1,7.07-3.22,74.12,74.12,0,0,1,8-1.7c2.7-.43,5.35-.76,8-1a49.49,49.49,0,0,0,6.94-1.14,12.17,12.17,0,0,0,4.8-2.21A4.86,4.86,0,0,0,329,43.93a9.56,9.56,0,0,0-.95-4.61,7,7,0,0,0-2.52-2.65,9.92,9.92,0,0,0-3.66-1.26,30.07,30.07,0,0,0-4.48-.32q-5.31,0-8.33,2.28c-2,1.51-3.2,4-3.54,7.57ZM329,58.2a7.93,7.93,0,0,1-2.84,1.57,28.72,28.72,0,0,1-3.66.95c-1.31.25-2.68.47-4.1.63s-2.87.38-4.3.63a34,34,0,0,0-4,1,11.48,11.48,0,0,0-3.41,1.71,8.07,8.07,0,0,0-2.34,2.71,8.74,8.74,0,0,0-.88,4.17,8.44,8.44,0,0,0,.88,4,6.78,6.78,0,0,0,2.4,2.58,9.91,9.91,0,0,0,3.54,1.33,22.66,22.66,0,0,0,4.16.38c3.54,0,6.27-.59,8.21-1.77A11.92,11.92,0,0,0,327,73.91a13.6,13.6,0,0,0,1.7-5,34.62,34.62,0,0,0,.32-4Z"/><path class="cls-1" d="M449.72,81.8a18.46,18.46,0,0,1-8.27,7.64,27.46,27.46,0,0,1-11.55,2.34A27.87,27.87,0,0,1,417,88.93a25.92,25.92,0,0,1-9.15-7.69,34.91,34.91,0,0,1-5.42-11.18,46.91,46.91,0,0,1-1.84-13.13,44,44,0,0,1,1.84-12.68,33,33,0,0,1,5.42-10.8,27.2,27.2,0,0,1,9-7.51,26.9,26.9,0,0,1,12.62-2.84,25.72,25.72,0,0,1,11.05,2.46,19.31,19.31,0,0,1,8.27,7.26h.25V0H467V90.13H450V81.8ZM449,49.55A18.79,18.79,0,0,0,446.37,43a14.54,14.54,0,0,0-4.73-4.6,13.85,13.85,0,0,0-7.32-1.77,14.54,14.54,0,0,0-7.45,1.77A13.94,13.94,0,0,0,422,43.05a20.61,20.61,0,0,0-2.65,6.63,35.77,35.77,0,0,0-.82,7.76,33.14,33.14,0,0,0,.88,7.57,20.81,20.81,0,0,0,2.84,6.76,15.86,15.86,0,0,0,4.93,4.79,13.31,13.31,0,0,0,7.13,1.83,14.24,14.24,0,0,0,7.39-1.76,13.51,13.51,0,0,0,4.73-4.74A21,21,0,0,0,449,65.14a39.39,39.39,0,0,0,.76-7.83A38.47,38.47,0,0,0,449,49.55Z"/><path class="cls-1" d="M167.48,40.35a22.8,22.8,0,0,0-10.16,2.12c1.55-11.57,6.63-17.91,15.51-19a35.27,35.27,0,0,1,8.6-.11v18.6C176.78,40.51,172.27,40.35,167.48,40.35Z"/><rect class="cls-1" x="139.4" y="24.86" width="17.92" height="65.27"/><path class="cls-1" d="M385.36,40.35a22.8,22.8,0,0,0-10.16,2.12c1.55-11.57,6.63-17.91,15.51-19a35.27,35.27,0,0,1,8.6-.11v18.6C394.66,40.51,390.15,40.35,385.36,40.35Z"/><rect class="cls-1" x="357.28" y="24.86" width="17.92" height="65.27"/></g></g></svg>